<svg xmlns="http://www.w3.org/2000/svg" xmlns:xlink="http://www.w3.org/1999/xlink" viewBox="0 0 512 512" width="512" height="512" role="img" aria-label="Scanisaur logo draft 08: ASCII Rex">
  <title>Scanisaur logo draft 08: ASCII Rex</title>
  <defs>
    <filter id="a08-glow" x="-5%" y="-5%" width="110%" height="110%">
      <feGaussianBlur stdDeviation="1.6" result="b"/>
      <feComponentTransfer in="b" result="g"><feFuncA type="linear" slope=".7"/></feComponentTransfer>
      <feMerge><feMergeNode in="g"/><feMergeNode in="SourceGraphic"/></feMerge>
    </filter>
    <path id="a08-c2e" transform="scale(1 -1)" d="M449 367H782V0H449Z"/><path id="a08-c3a" transform="scale(1 -1)" d="M449 1063H782V698H449ZM449 367H782V0H449Z"/><path id="a08-c3d" transform="scale(1 -1)" d="M88 532H1145V295H88ZM88 987H1145V752H88Z"/><path id="a08-c2a" transform="scale(1 -1)" d="M1108 1217 778 1044 1108 870 1032 729 700 913V569H528V913L197 729L121 870L453 1044L121 1217L197 1358L528 1176V1520H700V1176L1032 1358Z"/><path id="a08-c23" transform="scale(1 -1)" d="M707 1470 612 1096H815L909 1470H1133L1036 1096H1229V881H983L909 588H1114V373H856L762 0H541L635 373H430L336 0H115L209 373H2V588H262L336 881H117V1096H391L485 1470ZM762 881H557L483 588H688Z"/><path id="a08-c2b" transform="scale(1 -1)" d="M735 1192V762H1165V524H735V92H498V524H66V762H498V1192Z"/><path id="a08-c2d" transform="scale(1 -1)" d="M301 735H932V444H301Z"/><path id="a08-c56" transform="scale(1 -1)" d="M616 246 879 1493H1176L821 0H412L57 1493H354Z"/><path id="a08-c24" transform="scale(1 -1)" d="M694 528V226Q757 235 792.0 274.5Q827 314 827 375Q827 437 792.5 476.5Q758 516 694 528ZM553 817V1100Q491 1092 459.5 1058.5Q428 1025 428 967Q428 910 459.5 872.0Q491 834 553 817ZM694 -301H553L552 0Q465 3 370.0 26.0Q275 49 172 92V354Q275 293 371.5 260.0Q468 227 553 226V555Q356 594 260.0 689.5Q164 785 164 942Q164 1109 266.0 1208.0Q368 1307 553 1319V1556H694L695 1319Q766 1315 842.5 1301.0Q919 1287 999 1262V1006Q937 1046 861.0 1070.0Q785 1094 694 1100V793Q891 762 991.5 658.5Q1092 555 1092 383Q1092 219 983.5 114.0Q875 9 695 0Z"/><path id="a08-c73" transform="scale(1 -1)" d="M991 1085V829Q910 881 822.5 907.5Q735 934 647 934Q549 934 499.0 905.5Q449 877 449 821Q449 741 663 691L674 688L758 668Q918 630 992.5 545.5Q1067 461 1067 317Q1067 144 953.5 57.5Q840 -29 612 -29Q511 -29 405.0 -11.5Q299 6 190 41V297Q287 242 387.5 213.0Q488 184 582 184Q685 184 738.0 214.0Q791 244 791 301Q791 357 753.5 387.0Q716 417 575 451L494 469Q326 507 249.0 588.0Q172 669 172 805Q172 967 289.0 1057.0Q406 1147 618 1147Q713 1147 807.5 1131.5Q902 1116 991 1085Z"/><path id="a08-c63" transform="scale(1 -1)" d="M1061 57Q987 14 902.0 -7.5Q817 -29 719 -29Q460 -29 314.0 127.0Q168 283 168 559Q168 836 315.0 992.5Q462 1149 721 1149Q811 1149 894.5 1128.0Q978 1107 1061 1063V795Q997 850 920.5 879.5Q844 909 762 909Q619 909 542.0 818.0Q465 727 465 559Q465 391 542.0 301.0Q619 211 762 211Q847 211 921.0 239.5Q995 268 1061 326Z"/><path id="a08-c61" transform="scale(1 -1)" d="M700 526Q536 526 471.0 484.0Q406 442 406 340Q406 264 451.0 219.0Q496 174 573 174Q689 174 753.0 261.5Q817 349 817 506V526ZM1108 639V0H817V125Q764 51 681.0 11.0Q598 -29 498 -29Q307 -29 200.5 72.0Q94 173 94 354Q94 550 221.0 643.5Q348 737 614 737H817V786Q817 857 765.5 893.5Q714 930 614 930Q509 930 410.5 903.5Q312 877 205 819V1069Q302 1109 402.0 1128.0Q502 1147 614 1147Q887 1147 997.5 1036.0Q1108 925 1108 639Z"/><path id="a08-c6e" transform="scale(1 -1)" d="M1071 727V0H780V682Q780 804 745.5 856.5Q711 909 633 909Q554 909 508.5 838.0Q463 767 463 641V0H172V1120H463V952Q494 1045 569.0 1096.0Q644 1147 750 1147Q909 1147 990.0 1041.5Q1071 936 1071 727Z"/><path id="a08-c69" transform="scale(1 -1)" d="M221 1120H801V225H1165V0H143V225H508V895H221ZM508 1665H801V1323H508Z"/><path id="a08-c75" transform="scale(1 -1)" d="M160 391V1120H453V436Q453 315 487.0 263.0Q521 211 600 211Q679 211 723.5 281.0Q768 351 768 477V1120H1061V0H768V166Q737 73 662.5 22.0Q588 -29 483 -29Q323 -29 241.5 77.0Q160 183 160 391Z"/><path id="a08-c72" transform="scale(1 -1)" d="M1151 811Q1103 855 1038.5 877.0Q974 899 897 899Q804 899 734.5 866.5Q665 834 627 772Q603 734 593.5 680.0Q584 626 584 516V0H291V1120H584V946Q627 1042 716.0 1094.5Q805 1147 924 1147Q984 1147 1041.5 1132.5Q1099 1118 1151 1090Z"/>
  </defs>
  <rect width="512" height="512" rx="112" fill="#050805"/>
  <g filter="url(#a08-glow)">
    <g transform="translate(30.00 82.06) scale(0.006110)" fill="#A6FF00"><use xlink:href="#a08-c2e" x="55485" y="1638"/><use xlink:href="#a08-c3a" x="56718" y="1638"/><use xlink:href="#a08-c3a" x="57951" y="1638"/><use xlink:href="#a08-c3a" x="59184" y="1638"/><use xlink:href="#a08-c3a" x="60417" y="1638"/><use xlink:href="#a08-c3a" x="61650" y="1638"/><use xlink:href="#a08-c3a" x="62883" y="1638"/><use xlink:href="#a08-c3a" x="64116" y="1638"/><use xlink:href="#a08-c2e" x="65349" y="1638"/><use xlink:href="#a08-c2e" x="51786" y="3931"/><use xlink:href="#a08-c3d" x="53019" y="3931"/><use xlink:href="#a08-c2a" x="54252" y="3931"/><use xlink:href="#a08-c23" x="55485" y="3931"/><use xlink:href="#a08-c23" x="56718" y="3931"/><use xlink:href="#a08-c23" x="57951" y="3931"/><use xlink:href="#a08-c23" x="59184" y="3931"/><use xlink:href="#a08-c23" x="60417" y="3931"/><use xlink:href="#a08-c3d" x="61650" y="3931"/><use xlink:href="#a08-c3d" x="62883" y="3931"/><use xlink:href="#a08-c2a" x="64116" y="3931"/><use xlink:href="#a08-c23" x="65349" y="3931"/><use xlink:href="#a08-c23" x="66582" y="3931"/><use xlink:href="#a08-c2a" x="67815" y="3931"/><use xlink:href="#a08-c2b" x="69048" y="3931"/><use xlink:href="#a08-c2d" x="70281" y="3931"/><use xlink:href="#a08-c2e" x="71514" y="3931"/><use xlink:href="#a08-c2a" x="51786" y="6225"/><use xlink:href="#a08-c23" x="53019" y="6225"/><use xlink:href="#a08-c23" x="54252" y="6225"/><use xlink:href="#a08-c23" x="55485" y="6225"/><use xlink:href="#a08-c23" x="56718" y="6225"/><use xlink:href="#a08-c23" x="57951" y="6225"/><use xlink:href="#a08-c23" x="59184" y="6225"/><use xlink:href="#a08-c2a" x="60417" y="6225"/><use xlink:href="#a08-c2d" x="64116" y="6225"/><use xlink:href="#a08-c23" x="65349" y="6225"/><use xlink:href="#a08-c23" x="66582" y="6225"/><use xlink:href="#a08-c23" x="67815" y="6225"/><use xlink:href="#a08-c2a" x="69048" y="6225"/><use xlink:href="#a08-c2b" x="70281" y="6225"/><use xlink:href="#a08-c2a" x="71514" y="6225"/><use xlink:href="#a08-c2e" x="72747" y="6225"/><use xlink:href="#a08-c2b" x="50553" y="8519"/><use xlink:href="#a08-c23" x="51786" y="8519"/><use xlink:href="#a08-c23" x="53019" y="8519"/><use xlink:href="#a08-c23" x="54252" y="8519"/><use xlink:href="#a08-c23" x="55485" y="8519"/><use xlink:href="#a08-c23" x="56718" y="8519"/><use xlink:href="#a08-c23" x="57951" y="8519"/><use xlink:href="#a08-c23" x="59184" y="8519"/><use xlink:href="#a08-c23" x="60417" y="8519"/><use xlink:href="#a08-c23" x="61650" y="8519"/><use xlink:href="#a08-c2a" x="62883" y="8519"/><use xlink:href="#a08-c23" x="64116" y="8519"/><use xlink:href="#a08-c23" x="65349" y="8519"/><use xlink:href="#a08-c23" x="66582" y="8519"/><use xlink:href="#a08-c2a" x="67815" y="8519"/><use xlink:href="#a08-c2a" x="69048" y="8519"/><use xlink:href="#a08-c2b" x="70281" y="8519"/><use xlink:href="#a08-c3d" x="71514" y="8519"/><use xlink:href="#a08-c2e" x="25893" y="10813"/><use xlink:href="#a08-c3a" x="27126" y="10813"/><use xlink:href="#a08-c2d" x="28359" y="10813"/><use xlink:href="#a08-c3d" x="29592" y="10813"/><use xlink:href="#a08-c2b" x="30825" y="10813"/><use xlink:href="#a08-c2b" x="32058" y="10813"/><use xlink:href="#a08-c2b" x="33291" y="10813"/><use xlink:href="#a08-c2b" x="34524" y="10813"/><use xlink:href="#a08-c2b" x="35757" y="10813"/><use xlink:href="#a08-c2a" x="36990" y="10813"/><use xlink:href="#a08-c2a" x="38223" y="10813"/><use xlink:href="#a08-c2b" x="39456" y="10813"/><use xlink:href="#a08-c3d" x="40689" y="10813"/><use xlink:href="#a08-c3d" x="41922" y="10813"/><use xlink:href="#a08-c2d" x="43155" y="10813"/><use xlink:href="#a08-c3a" x="44388" y="10813"/><use xlink:href="#a08-c3a" x="45621" y="10813"/><use xlink:href="#a08-c3d" x="46854" y="10813"/><use xlink:href="#a08-c2a" x="48087" y="10813"/><use xlink:href="#a08-c23" x="49320" y="10813"/><use xlink:href="#a08-c23" x="50553" y="10813"/><use xlink:href="#a08-c23" x="51786" y="10813"/><use xlink:href="#a08-c23" x="53019" y="10813"/><use xlink:href="#a08-c23" x="54252" y="10813"/><use xlink:href="#a08-c23" x="55485" y="10813"/><use xlink:href="#a08-c23" x="56718" y="10813"/><use xlink:href="#a08-c2a" x="57951" y="10813"/><use xlink:href="#a08-c3d" x="59184" y="10813"/><use xlink:href="#a08-c2d" x="60417" y="10813"/><use xlink:href="#a08-c3a" x="61650" y="10813"/><use xlink:href="#a08-c3a" x="62883" y="10813"/><use xlink:href="#a08-c2e" x="64116" y="10813"/><use xlink:href="#a08-c56" x="65349" y="10813"/><use xlink:href="#a08-c56" x="67815" y="10813"/><use xlink:href="#a08-c2e" x="19728" y="13106"/><use xlink:href="#a08-c2d" x="20961" y="13106"/><use xlink:href="#a08-c3d" x="22194" y="13106"/><use xlink:href="#a08-c2b" x="23427" y="13106"/><use xlink:href="#a08-c2a" x="24660" y="13106"/><use xlink:href="#a08-c23" x="25893" y="13106"/><use xlink:href="#a08-c23" x="27126" y="13106"/><use xlink:href="#a08-c23" x="28359" y="13106"/><use xlink:href="#a08-c23" x="29592" y="13106"/><use xlink:href="#a08-c23" x="30825" y="13106"/><use xlink:href="#a08-c23" x="32058" y="13106"/><use xlink:href="#a08-c23" x="33291" y="13106"/><use xlink:href="#a08-c23" x="34524" y="13106"/><use xlink:href="#a08-c23" x="35757" y="13106"/><use xlink:href="#a08-c23" x="36990" y="13106"/><use xlink:href="#a08-c23" x="38223" y="13106"/><use xlink:href="#a08-c23" x="39456" y="13106"/><use xlink:href="#a08-c23" x="40689" y="13106"/><use xlink:href="#a08-c23" x="41922" y="13106"/><use xlink:href="#a08-c23" x="43155" y="13106"/><use xlink:href="#a08-c23" x="44388" y="13106"/><use xlink:href="#a08-c23" x="45621" y="13106"/><use xlink:href="#a08-c23" x="46854" y="13106"/><use xlink:href="#a08-c23" x="48087" y="13106"/><use xlink:href="#a08-c23" x="49320" y="13106"/><use xlink:href="#a08-c23" x="50553" y="13106"/><use xlink:href="#a08-c23" x="51786" y="13106"/><use xlink:href="#a08-c23" x="53019" y="13106"/><use xlink:href="#a08-c23" x="54252" y="13106"/><use xlink:href="#a08-c23" x="55485" y="13106"/><use xlink:href="#a08-c23" x="56718" y="13106"/><use xlink:href="#a08-c23" x="57951" y="13106"/><use xlink:href="#a08-c23" x="59184" y="13106"/><use xlink:href="#a08-c2a" x="60417" y="13106"/><use xlink:href="#a08-c2b" x="61650" y="13106"/><use xlink:href="#a08-c3d" x="62883" y="13106"/><use xlink:href="#a08-c3a" x="64116" y="13106"/><use xlink:href="#a08-c2e" x="65349" y="13106"/><use xlink:href="#a08-c3a" x="13563" y="15400"/><use xlink:href="#a08-c2d" x="14796" y="15400"/><use xlink:href="#a08-c3d" x="16029" y="15400"/><use xlink:href="#a08-c2a" x="17262" y="15400"/><use xlink:href="#a08-c23" x="18495" y="15400"/><use xlink:href="#a08-c23" x="19728" y="15400"/><use xlink:href="#a08-c23" x="20961" y="15400"/><use xlink:href="#a08-c23" x="22194" y="15400"/><use xlink:href="#a08-c23" x="23427" y="15400"/><use xlink:href="#a08-c23" x="24660" y="15400"/><use xlink:href="#a08-c23" x="25893" y="15400"/><use xlink:href="#a08-c23" x="27126" y="15400"/><use xlink:href="#a08-c23" x="28359" y="15400"/><use xlink:href="#a08-c23" x="29592" y="15400"/><use xlink:href="#a08-c23" x="30825" y="15400"/><use xlink:href="#a08-c23" x="32058" y="15400"/><use xlink:href="#a08-c23" x="33291" y="15400"/><use xlink:href="#a08-c23" x="34524" y="15400"/><use xlink:href="#a08-c23" x="35757" y="15400"/><use xlink:href="#a08-c23" x="36990" y="15400"/><use xlink:href="#a08-c23" x="38223" y="15400"/><use xlink:href="#a08-c23" x="39456" y="15400"/><use xlink:href="#a08-c23" x="40689" y="15400"/><use xlink:href="#a08-c23" x="41922" y="15400"/><use xlink:href="#a08-c23" x="43155" y="15400"/><use xlink:href="#a08-c23" x="44388" y="15400"/><use xlink:href="#a08-c23" x="45621" y="15400"/><use xlink:href="#a08-c23" x="46854" y="15400"/><use xlink:href="#a08-c23" x="48087" y="15400"/><use xlink:href="#a08-c23" x="49320" y="15400"/><use xlink:href="#a08-c23" x="50553" y="15400"/><use xlink:href="#a08-c23" x="51786" y="15400"/><use xlink:href="#a08-c23" x="53019" y="15400"/><use xlink:href="#a08-c23" x="54252" y="15400"/><use xlink:href="#a08-c23" x="55485" y="15400"/><use xlink:href="#a08-c23" x="56718" y="15400"/><use xlink:href="#a08-c23" x="57951" y="15400"/><use xlink:href="#a08-c23" x="59184" y="15400"/><use xlink:href="#a08-c23" x="60417" y="15400"/><use xlink:href="#a08-c23" x="61650" y="15400"/><use xlink:href="#a08-c23" x="62883" y="15400"/><use xlink:href="#a08-c23" x="64116" y="15400"/><use xlink:href="#a08-c23" x="65349" y="15400"/><use xlink:href="#a08-c2a" x="66582" y="15400"/><use xlink:href="#a08-c2b" x="67815" y="15400"/><use xlink:href="#a08-c2e" x="69048" y="15400"/><use xlink:href="#a08-c3a" x="7398" y="17694"/><use xlink:href="#a08-c2d" x="8631" y="17694"/><use xlink:href="#a08-c2b" x="9864" y="17694"/><use xlink:href="#a08-c2a" x="11097" y="17694"/><use xlink:href="#a08-c23" x="12330" y="17694"/><use xlink:href="#a08-c23" x="13563" y="17694"/><use xlink:href="#a08-c23" x="14796" y="17694"/><use xlink:href="#a08-c23" x="16029" y="17694"/><use xlink:href="#a08-c23" x="17262" y="17694"/><use xlink:href="#a08-c23" x="18495" y="17694"/><use xlink:href="#a08-c23" x="19728" y="17694"/><use xlink:href="#a08-c23" x="20961" y="17694"/><use xlink:href="#a08-c23" x="22194" y="17694"/><use xlink:href="#a08-c23" x="23427" y="17694"/><use xlink:href="#a08-c23" x="24660" y="17694"/><use xlink:href="#a08-c23" x="25893" y="17694"/><use xlink:href="#a08-c23" x="27126" y="17694"/><use xlink:href="#a08-c23" x="28359" y="17694"/><use xlink:href="#a08-c23" x="29592" y="17694"/><use xlink:href="#a08-c23" x="30825" y="17694"/><use xlink:href="#a08-c23" x="32058" y="17694"/><use xlink:href="#a08-c23" x="33291" y="17694"/><use xlink:href="#a08-c23" x="34524" y="17694"/><use xlink:href="#a08-c23" x="35757" y="17694"/><use xlink:href="#a08-c23" x="36990" y="17694"/><use xlink:href="#a08-c23" x="38223" y="17694"/><use xlink:href="#a08-c23" x="39456" y="17694"/><use xlink:href="#a08-c23" x="40689" y="17694"/><use xlink:href="#a08-c23" x="41922" y="17694"/><use xlink:href="#a08-c23" x="43155" y="17694"/><use xlink:href="#a08-c23" x="44388" y="17694"/><use xlink:href="#a08-c23" x="45621" y="17694"/><use xlink:href="#a08-c23" x="46854" y="17694"/><use xlink:href="#a08-c23" x="48087" y="17694"/><use xlink:href="#a08-c23" x="49320" y="17694"/><use xlink:href="#a08-c23" x="50553" y="17694"/><use xlink:href="#a08-c23" x="51786" y="17694"/><use xlink:href="#a08-c23" x="53019" y="17694"/><use xlink:href="#a08-c23" x="54252" y="17694"/><use xlink:href="#a08-c23" x="55485" y="17694"/><use xlink:href="#a08-c23" x="56718" y="17694"/><use xlink:href="#a08-c23" x="57951" y="17694"/><use xlink:href="#a08-c23" x="59184" y="17694"/><use xlink:href="#a08-c23" x="60417" y="17694"/><use xlink:href="#a08-c23" x="61650" y="17694"/><use xlink:href="#a08-c23" x="62883" y="17694"/><use xlink:href="#a08-c23" x="64116" y="17694"/><use xlink:href="#a08-c2a" x="65349" y="17694"/><use xlink:href="#a08-c2a" x="66582" y="17694"/><use xlink:href="#a08-c2b" x="67815" y="17694"/><use xlink:href="#a08-c2e" x="0" y="19988"/><use xlink:href="#a08-c3a" x="1233" y="19988"/><use xlink:href="#a08-c3d" x="2466" y="19988"/><use xlink:href="#a08-c2b" x="3699" y="19988"/><use xlink:href="#a08-c2a" x="4932" y="19988"/><use xlink:href="#a08-c23" x="6165" y="19988"/><use xlink:href="#a08-c23" x="7398" y="19988"/><use xlink:href="#a08-c23" x="8631" y="19988"/><use xlink:href="#a08-c23" x="9864" y="19988"/><use xlink:href="#a08-c23" x="11097" y="19988"/><use xlink:href="#a08-c23" x="12330" y="19988"/><use xlink:href="#a08-c23" x="13563" y="19988"/><use xlink:href="#a08-c23" x="14796" y="19988"/><use xlink:href="#a08-c23" x="16029" y="19988"/><use xlink:href="#a08-c23" x="17262" y="19988"/><use xlink:href="#a08-c23" x="18495" y="19988"/><use xlink:href="#a08-c23" x="19728" y="19988"/><use xlink:href="#a08-c23" x="20961" y="19988"/><use xlink:href="#a08-c23" x="22194" y="19988"/><use xlink:href="#a08-c23" x="23427" y="19988"/><use xlink:href="#a08-c23" x="24660" y="19988"/><use xlink:href="#a08-c23" x="25893" y="19988"/><use xlink:href="#a08-c23" x="27126" y="19988"/><use xlink:href="#a08-c23" x="28359" y="19988"/><use xlink:href="#a08-c23" x="29592" y="19988"/><use xlink:href="#a08-c23" x="30825" y="19988"/><use xlink:href="#a08-c23" x="32058" y="19988"/><use xlink:href="#a08-c23" x="33291" y="19988"/><use xlink:href="#a08-c23" x="34524" y="19988"/><use xlink:href="#a08-c23" x="35757" y="19988"/><use xlink:href="#a08-c23" x="36990" y="19988"/><use xlink:href="#a08-c23" x="38223" y="19988"/><use xlink:href="#a08-c23" x="39456" y="19988"/><use xlink:href="#a08-c23" x="40689" y="19988"/><use xlink:href="#a08-c23" x="41922" y="19988"/><use xlink:href="#a08-c23" x="43155" y="19988"/><use xlink:href="#a08-c23" x="44388" y="19988"/><use xlink:href="#a08-c23" x="45621" y="19988"/><use xlink:href="#a08-c23" x="46854" y="19988"/><use xlink:href="#a08-c23" x="48087" y="19988"/><use xlink:href="#a08-c23" x="49320" y="19988"/><use xlink:href="#a08-c23" x="50553" y="19988"/><use xlink:href="#a08-c23" x="51786" y="19988"/><use xlink:href="#a08-c2a" x="53019" y="19988"/><use xlink:href="#a08-c2d" x="54252" y="19988"/><use xlink:href="#a08-c3a" x="55485" y="19988"/><use xlink:href="#a08-c3a" x="56718" y="19988"/><use xlink:href="#a08-c3a" x="57951" y="19988"/><use xlink:href="#a08-c3a" x="59184" y="19988"/><use xlink:href="#a08-c3a" x="60417" y="19988"/><use xlink:href="#a08-c2e" x="61650" y="19988"/><use xlink:href="#a08-c2e" x="0" y="22281"/><use xlink:href="#a08-c3a" x="1233" y="22281"/><use xlink:href="#a08-c2d" x="2466" y="22281"/><use xlink:href="#a08-c2d" x="3699" y="22281"/><use xlink:href="#a08-c3d" x="4932" y="22281"/><use xlink:href="#a08-c3d" x="6165" y="22281"/><use xlink:href="#a08-c2b" x="7398" y="22281"/><use xlink:href="#a08-c2b" x="8631" y="22281"/><use xlink:href="#a08-c2b" x="9864" y="22281"/><use xlink:href="#a08-c2a" x="11097" y="22281"/><use xlink:href="#a08-c23" x="12330" y="22281"/><use xlink:href="#a08-c23" x="13563" y="22281"/><use xlink:href="#a08-c23" x="14796" y="22281"/><use xlink:href="#a08-c23" x="16029" y="22281"/><use xlink:href="#a08-c23" x="17262" y="22281"/><use xlink:href="#a08-c23" x="18495" y="22281"/><use xlink:href="#a08-c23" x="19728" y="22281"/><use xlink:href="#a08-c23" x="20961" y="22281"/><use xlink:href="#a08-c23" x="22194" y="22281"/><use xlink:href="#a08-c23" x="23427" y="22281"/><use xlink:href="#a08-c23" x="24660" y="22281"/><use xlink:href="#a08-c23" x="25893" y="22281"/><use xlink:href="#a08-c23" x="27126" y="22281"/><use xlink:href="#a08-c23" x="28359" y="22281"/><use xlink:href="#a08-c23" x="29592" y="22281"/><use xlink:href="#a08-c23" x="30825" y="22281"/><use xlink:href="#a08-c23" x="32058" y="22281"/><use xlink:href="#a08-c23" x="33291" y="22281"/><use xlink:href="#a08-c23" x="34524" y="22281"/><use xlink:href="#a08-c23" x="35757" y="22281"/><use xlink:href="#a08-c23" x="36990" y="22281"/><use xlink:href="#a08-c23" x="38223" y="22281"/><use xlink:href="#a08-c23" x="39456" y="22281"/><use xlink:href="#a08-c23" x="40689" y="22281"/><use xlink:href="#a08-c23" x="41922" y="22281"/><use xlink:href="#a08-c23" x="43155" y="22281"/><use xlink:href="#a08-c23" x="44388" y="22281"/><use xlink:href="#a08-c23" x="45621" y="22281"/><use xlink:href="#a08-c23" x="46854" y="22281"/><use xlink:href="#a08-c23" x="48087" y="22281"/><use xlink:href="#a08-c23" x="49320" y="22281"/><use xlink:href="#a08-c23" x="50553" y="22281"/><use xlink:href="#a08-c2b" x="51786" y="22281"/><use xlink:href="#a08-c2e" x="53019" y="22281"/><use xlink:href="#a08-c2e" x="14796" y="24575"/><use xlink:href="#a08-c2e" x="16029" y="24575"/><use xlink:href="#a08-c3a" x="17262" y="24575"/><use xlink:href="#a08-c2d" x="18495" y="24575"/><use xlink:href="#a08-c2b" x="19728" y="24575"/><use xlink:href="#a08-c23" x="20961" y="24575"/><use xlink:href="#a08-c23" x="22194" y="24575"/><use xlink:href="#a08-c23" x="23427" y="24575"/><use xlink:href="#a08-c23" x="24660" y="24575"/><use xlink:href="#a08-c23" x="25893" y="24575"/><use xlink:href="#a08-c23" x="27126" y="24575"/><use xlink:href="#a08-c23" x="28359" y="24575"/><use xlink:href="#a08-c23" x="29592" y="24575"/><use xlink:href="#a08-c23" x="30825" y="24575"/><use xlink:href="#a08-c23" x="32058" y="24575"/><use xlink:href="#a08-c23" x="33291" y="24575"/><use xlink:href="#a08-c23" x="34524" y="24575"/><use xlink:href="#a08-c23" x="35757" y="24575"/><use xlink:href="#a08-c23" x="36990" y="24575"/><use xlink:href="#a08-c23" x="38223" y="24575"/><use xlink:href="#a08-c23" x="39456" y="24575"/><use xlink:href="#a08-c23" x="40689" y="24575"/><use xlink:href="#a08-c23" x="41922" y="24575"/><use xlink:href="#a08-c23" x="43155" y="24575"/><use xlink:href="#a08-c23" x="44388" y="24575"/><use xlink:href="#a08-c23" x="45621" y="24575"/><use xlink:href="#a08-c23" x="46854" y="24575"/><use xlink:href="#a08-c23" x="48087" y="24575"/><use xlink:href="#a08-c23" x="49320" y="24575"/><use xlink:href="#a08-c23" x="50553" y="24575"/><use xlink:href="#a08-c23" x="51786" y="24575"/><use xlink:href="#a08-c2a" x="53019" y="24575"/><use xlink:href="#a08-c3d" x="54252" y="24575"/><use xlink:href="#a08-c2e" x="55485" y="24575"/><use xlink:href="#a08-c3a" x="22194" y="26869"/><use xlink:href="#a08-c3d" x="23427" y="26869"/><use xlink:href="#a08-c2a" x="24660" y="26869"/><use xlink:href="#a08-c23" x="25893" y="26869"/><use xlink:href="#a08-c23" x="27126" y="26869"/><use xlink:href="#a08-c23" x="28359" y="26869"/><use xlink:href="#a08-c23" x="29592" y="26869"/><use xlink:href="#a08-c23" x="30825" y="26869"/><use xlink:href="#a08-c23" x="32058" y="26869"/><use xlink:href="#a08-c23" x="33291" y="26869"/><use xlink:href="#a08-c23" x="34524" y="26869"/><use xlink:href="#a08-c23" x="35757" y="26869"/><use xlink:href="#a08-c23" x="36990" y="26869"/><use xlink:href="#a08-c23" x="38223" y="26869"/><use xlink:href="#a08-c23" x="39456" y="26869"/><use xlink:href="#a08-c23" x="40689" y="26869"/><use xlink:href="#a08-c23" x="41922" y="26869"/><use xlink:href="#a08-c23" x="43155" y="26869"/><use xlink:href="#a08-c23" x="44388" y="26869"/><use xlink:href="#a08-c23" x="45621" y="26869"/><use xlink:href="#a08-c23" x="46854" y="26869"/><use xlink:href="#a08-c2b" x="48087" y="26869"/><use xlink:href="#a08-c3a" x="49320" y="26869"/><use xlink:href="#a08-c2e" x="50553" y="26869"/><use xlink:href="#a08-c2e" x="51786" y="26869"/><use xlink:href="#a08-c2e" x="53019" y="26869"/><use xlink:href="#a08-c2d" x="54252" y="26869"/><use xlink:href="#a08-c2b" x="55485" y="26869"/><use xlink:href="#a08-c2e" x="56718" y="26869"/><use xlink:href="#a08-c3d" x="25893" y="29163"/><use xlink:href="#a08-c23" x="27126" y="29163"/><use xlink:href="#a08-c23" x="28359" y="29163"/><use xlink:href="#a08-c23" x="29592" y="29163"/><use xlink:href="#a08-c23" x="30825" y="29163"/><use xlink:href="#a08-c23" x="32058" y="29163"/><use xlink:href="#a08-c23" x="33291" y="29163"/><use xlink:href="#a08-c23" x="34524" y="29163"/><use xlink:href="#a08-c23" x="35757" y="29163"/><use xlink:href="#a08-c23" x="36990" y="29163"/><use xlink:href="#a08-c23" x="38223" y="29163"/><use xlink:href="#a08-c23" x="39456" y="29163"/><use xlink:href="#a08-c23" x="40689" y="29163"/><use xlink:href="#a08-c23" x="41922" y="29163"/><use xlink:href="#a08-c23" x="43155" y="29163"/><use xlink:href="#a08-c23" x="44388" y="29163"/><use xlink:href="#a08-c23" x="45621" y="29163"/><use xlink:href="#a08-c2e" x="46854" y="29163"/><use xlink:href="#a08-c2a" x="27126" y="31456"/><use xlink:href="#a08-c23" x="28359" y="31456"/><use xlink:href="#a08-c23" x="29592" y="31456"/><use xlink:href="#a08-c23" x="30825" y="31456"/><use xlink:href="#a08-c23" x="32058" y="31456"/><use xlink:href="#a08-c23" x="33291" y="31456"/><use xlink:href="#a08-c23" x="34524" y="31456"/><use xlink:href="#a08-c23" x="35757" y="31456"/><use xlink:href="#a08-c23" x="36990" y="31456"/><use xlink:href="#a08-c23" x="38223" y="31456"/><use xlink:href="#a08-c23" x="39456" y="31456"/><use xlink:href="#a08-c23" x="40689" y="31456"/><use xlink:href="#a08-c23" x="41922" y="31456"/><use xlink:href="#a08-c23" x="43155" y="31456"/><use xlink:href="#a08-c23" x="44388" y="31456"/><use xlink:href="#a08-c2b" x="45621" y="31456"/><use xlink:href="#a08-c3a" x="27126" y="33750"/><use xlink:href="#a08-c23" x="28359" y="33750"/><use xlink:href="#a08-c23" x="29592" y="33750"/><use xlink:href="#a08-c23" x="30825" y="33750"/><use xlink:href="#a08-c23" x="32058" y="33750"/><use xlink:href="#a08-c2b" x="33291" y="33750"/><use xlink:href="#a08-c3a" x="34524" y="33750"/><use xlink:href="#a08-c2e" x="36990" y="33750"/><use xlink:href="#a08-c3d" x="38223" y="33750"/><use xlink:href="#a08-c23" x="39456" y="33750"/><use xlink:href="#a08-c23" x="40689" y="33750"/><use xlink:href="#a08-c23" x="41922" y="33750"/><use xlink:href="#a08-c23" x="43155" y="33750"/><use xlink:href="#a08-c23" x="44388" y="33750"/><use xlink:href="#a08-c23" x="45621" y="33750"/><use xlink:href="#a08-c2d" x="46854" y="33750"/><use xlink:href="#a08-c2e" x="27126" y="36044"/><use xlink:href="#a08-c23" x="28359" y="36044"/><use xlink:href="#a08-c23" x="29592" y="36044"/><use xlink:href="#a08-c23" x="30825" y="36044"/><use xlink:href="#a08-c23" x="32058" y="36044"/><use xlink:href="#a08-c2e" x="33291" y="36044"/><use xlink:href="#a08-c2b" x="40689" y="36044"/><use xlink:href="#a08-c23" x="41922" y="36044"/><use xlink:href="#a08-c23" x="43155" y="36044"/><use xlink:href="#a08-c23" x="44388" y="36044"/><use xlink:href="#a08-c23" x="45621" y="36044"/><use xlink:href="#a08-c23" x="46854" y="36044"/><use xlink:href="#a08-c2e" x="48087" y="36044"/><use xlink:href="#a08-c2d" x="27126" y="38338"/><use xlink:href="#a08-c23" x="28359" y="38338"/><use xlink:href="#a08-c23" x="29592" y="38338"/><use xlink:href="#a08-c23" x="30825" y="38338"/><use xlink:href="#a08-c2b" x="32058" y="38338"/><use xlink:href="#a08-c2a" x="40689" y="38338"/><use xlink:href="#a08-c23" x="41922" y="38338"/><use xlink:href="#a08-c23" x="43155" y="38338"/><use xlink:href="#a08-c23" x="44388" y="38338"/><use xlink:href="#a08-c23" x="45621" y="38338"/><use xlink:href="#a08-c3a" x="46854" y="38338"/><use xlink:href="#a08-c3d" x="27126" y="40631"/><use xlink:href="#a08-c23" x="28359" y="40631"/><use xlink:href="#a08-c23" x="29592" y="40631"/><use xlink:href="#a08-c23" x="30825" y="40631"/><use xlink:href="#a08-c23" x="32058" y="40631"/><use xlink:href="#a08-c2b" x="33291" y="40631"/><use xlink:href="#a08-c2e" x="34524" y="40631"/><use xlink:href="#a08-c3d" x="39456" y="40631"/><use xlink:href="#a08-c23" x="40689" y="40631"/><use xlink:href="#a08-c23" x="41922" y="40631"/><use xlink:href="#a08-c23" x="43155" y="40631"/><use xlink:href="#a08-c23" x="44388" y="40631"/><use xlink:href="#a08-c3d" x="45621" y="40631"/><use xlink:href="#a08-c2e" x="46854" y="40631"/><use xlink:href="#a08-c2a" x="27126" y="42925"/><use xlink:href="#a08-c23" x="28359" y="42925"/><use xlink:href="#a08-c23" x="29592" y="42925"/><use xlink:href="#a08-c23" x="30825" y="42925"/><use xlink:href="#a08-c23" x="32058" y="42925"/><use xlink:href="#a08-c23" x="33291" y="42925"/><use xlink:href="#a08-c2a" x="34524" y="42925"/><use xlink:href="#a08-c3a" x="39456" y="42925"/><use xlink:href="#a08-c23" x="40689" y="42925"/><use xlink:href="#a08-c23" x="41922" y="42925"/><use xlink:href="#a08-c23" x="43155" y="42925"/><use xlink:href="#a08-c23" x="44388" y="42925"/><use xlink:href="#a08-c23" x="45621" y="42925"/><use xlink:href="#a08-c23" x="46854" y="42925"/><use xlink:href="#a08-c2a" x="48087" y="42925"/><use xlink:href="#a08-c2e" x="49320" y="42925"/><use xlink:href="#a08-c2e" x="27126" y="45219"/><use xlink:href="#a08-c2e" x="28359" y="45219"/><use xlink:href="#a08-c2e" x="29592" y="45219"/><use xlink:href="#a08-c2e" x="30825" y="45219"/><use xlink:href="#a08-c2e" x="32058" y="45219"/><use xlink:href="#a08-c2e" x="33291" y="45219"/><use xlink:href="#a08-c2e" x="34524" y="45219"/><use xlink:href="#a08-c2e" x="40689" y="45219"/><use xlink:href="#a08-c2e" x="41922" y="45219"/><use xlink:href="#a08-c2e" x="43155" y="45219"/><use xlink:href="#a08-c2e" x="44388" y="45219"/><use xlink:href="#a08-c2e" x="45621" y="45219"/><use xlink:href="#a08-c2e" x="46854" y="45219"/><use xlink:href="#a08-c2e" x="48087" y="45219"/></g>
    <g transform="translate(147.63 396.34) scale(0.014648)" fill="#A6FF00"><use xlink:href="#a08-c24" x="0" y="1638"/><use xlink:href="#a08-c73" x="2466" y="1638"/><use xlink:href="#a08-c63" x="3699" y="1638"/><use xlink:href="#a08-c61" x="4932" y="1638"/><use xlink:href="#a08-c6e" x="6165" y="1638"/><use xlink:href="#a08-c69" x="7398" y="1638"/><use xlink:href="#a08-c73" x="8631" y="1638"/><use xlink:href="#a08-c61" x="9864" y="1638"/><use xlink:href="#a08-c75" x="11097" y="1638"/><use xlink:href="#a08-c72" x="12330" y="1638"/></g>
    <rect x="351.7" y="399.9" width="18.0" height="27.6" fill="#A6FF00"/>
  </g>
</svg>
