<svg xmlns="http://www.w3.org/2000/svg" xmlns:xlink="http://www.w3.org/1999/xlink" viewBox="0 0 512 512" width="512" height="512" role="img" aria-label="Scanisaur logo draft 11: Outline Rex Icon">
  <title>Scanisaur logo draft 11: Outline Rex Icon</title>
  <defs>
    <filter id="a11-glow" x="-5%" y="-5%" width="110%" height="110%">
      <feGaussianBlur stdDeviation="1.6" result="b"/>
      <feComponentTransfer in="b" result="g"><feFuncA type="linear" slope=".7"/></feComponentTransfer>
      <feMerge><feMergeNode in="g"/><feMergeNode in="SourceGraphic"/></feMerge>
    </filter>
    <path id="a11-c5f" transform="scale(1 -1)" d="M1233 -293V-483H0V-293Z"/><path id="a11-c2e" transform="scale(1 -1)" d="M449 367H782V0H449Z"/><path id="a11-c2d" transform="scale(1 -1)" d="M301 735H932V444H301Z"/><path id="a11-c27" transform="scale(1 -1)" d="M743 1493V938H487V1493Z"/><path id="a11-c2f" transform="scale(1 -1)" d="M899 1493H1120L334 -190H113Z"/><path id="a11-c6f" transform="scale(1 -1)" d="M616 909Q511 909 451.0 816.5Q391 724 391 559Q391 394 451.0 301.5Q511 209 616 209Q722 209 782.0 301.5Q842 394 842 559Q842 724 782.0 816.5Q722 909 616 909ZM98 559Q98 830 238.5 988.5Q379 1147 616 1147Q854 1147 994.5 988.5Q1135 830 1135 559Q1135 288 994.5 129.5Q854 -29 616 -29Q379 -29 238.5 129.5Q98 288 98 559Z"/><path id="a11-c5c" transform="scale(1 -1)" d="M334 1493 1120 -190H897L111 1493Z"/><path id="a11-c7c" transform="scale(1 -1)" d="M729 1565V-483H502V1565Z"/><path id="a11-c28" transform="scale(1 -1)" d="M924 1554Q792 1315 728.0 1091.0Q664 867 664 643Q664 421 728.0 195.5Q792 -30 924 -270H696Q537 -39 460.0 185.5Q383 410 383 643Q383 875 460.5 1100.5Q538 1326 696 1554Z"/><path id="a11-c3d" transform="scale(1 -1)" d="M88 532H1145V295H88ZM88 987H1145V752H88Z"/><path id="a11-c29" transform="scale(1 -1)" d="M309 1554H537Q695 1326 772.5 1100.5Q850 875 850 643Q850 410 773.0 185.5Q696 -39 537 -270H309Q441 -30 505.0 195.5Q569 421 569 643Q569 867 505.0 1091.0Q441 1315 309 1554Z"/>
  </defs>
  <rect width="512" height="512" rx="112" fill="#050805"/>
  <clipPath id="outline-icon-tile"><rect width="512" height="512" rx="112"/></clipPath>
  <g clip-path="url(#outline-icon-tile)" filter="url(#a11-glow)">
    <g transform="translate(0.00 56.93) scale(0.010415)" fill="#A6FF00"><use xlink:href="#a11-c5f" x="24660" y="1638"/><use xlink:href="#a11-c5f" x="25893" y="1638"/><use xlink:href="#a11-c5f" x="27126" y="1638"/><use xlink:href="#a11-c5f" x="28359" y="1638"/><use xlink:href="#a11-c5f" x="29592" y="1638"/><use xlink:href="#a11-c5f" x="30825" y="1638"/><use xlink:href="#a11-c5f" x="32058" y="1638"/><use xlink:href="#a11-c5f" x="33291" y="1638"/><use xlink:href="#a11-c5f" x="34524" y="1638"/><use xlink:href="#a11-c5f" x="35757" y="1638"/><use xlink:href="#a11-c2e" x="19728" y="3931"/><use xlink:href="#a11-c2d" x="20961" y="3931"/><use xlink:href="#a11-c27" x="22194" y="3931"/><use xlink:href="#a11-c27" x="23427" y="3931"/><use xlink:href="#a11-c27" x="36990" y="3931"/><use xlink:href="#a11-c27" x="38223" y="3931"/><use xlink:href="#a11-c2d" x="39456" y="3931"/><use xlink:href="#a11-c2e" x="40689" y="3931"/><use xlink:href="#a11-c2f" x="18495" y="6225"/><use xlink:href="#a11-c6f" x="30825" y="6225"/><use xlink:href="#a11-c2e" x="39456" y="6225"/><use xlink:href="#a11-c5c" x="41922" y="6225"/><use xlink:href="#a11-c7c" x="17262" y="8519"/><use xlink:href="#a11-c7c" x="43155" y="8519"/><use xlink:href="#a11-c7c" x="17262" y="10813"/><use xlink:href="#a11-c7c" x="43155" y="10813"/><use xlink:href="#a11-c2e" x="14796" y="13106"/><use xlink:href="#a11-c27" x="16029" y="13106"/><use xlink:href="#a11-c27" x="27126" y="13106"/><use xlink:href="#a11-c2d" x="28359" y="13106"/><use xlink:href="#a11-c2e" x="29592" y="13106"/><use xlink:href="#a11-c5f" x="30825" y="13106"/><use xlink:href="#a11-c5f" x="32058" y="13106"/><use xlink:href="#a11-c5f" x="33291" y="13106"/><use xlink:href="#a11-c5f" x="34524" y="13106"/><use xlink:href="#a11-c5f" x="35757" y="13106"/><use xlink:href="#a11-c5f" x="36990" y="13106"/><use xlink:href="#a11-c2e" x="38223" y="13106"/><use xlink:href="#a11-c2d" x="39456" y="13106"/><use xlink:href="#a11-c27" x="40689" y="13106"/><use xlink:href="#a11-c2f" x="43155" y="13106"/><use xlink:href="#a11-c5f" x="6165" y="15400"/><use xlink:href="#a11-c5f" x="7398" y="15400"/><use xlink:href="#a11-c5f" x="8631" y="15400"/><use xlink:href="#a11-c5f" x="9864" y="15400"/><use xlink:href="#a11-c2e" x="11097" y="15400"/><use xlink:href="#a11-c2d" x="12330" y="15400"/><use xlink:href="#a11-c27" x="13563" y="15400"/><use xlink:href="#a11-c5f" x="33291" y="15400"/><use xlink:href="#a11-c5f" x="34524" y="15400"/><use xlink:href="#a11-c5f" x="35757" y="15400"/><use xlink:href="#a11-c5f" x="36990" y="15400"/><use xlink:href="#a11-c5f" x="38223" y="15400"/><use xlink:href="#a11-c2e" x="39456" y="15400"/><use xlink:href="#a11-c2d" x="40689" y="15400"/><use xlink:href="#a11-c27" x="41922" y="15400"/><use xlink:href="#a11-c2e" x="0" y="17694"/><use xlink:href="#a11-c2d" x="1233" y="17694"/><use xlink:href="#a11-c2d" x="2466" y="17694"/><use xlink:href="#a11-c27" x="3699" y="17694"/><use xlink:href="#a11-c27" x="4932" y="17694"/><use xlink:href="#a11-c2e" x="24660" y="17694"/><use xlink:href="#a11-c2d" x="25893" y="17694"/><use xlink:href="#a11-c2d" x="27126" y="17694"/><use xlink:href="#a11-c27" x="28359" y="17694"/><use xlink:href="#a11-c27" x="29592" y="17694"/><use xlink:href="#a11-c27" x="30825" y="17694"/><use xlink:href="#a11-c27" x="32058" y="17694"/><use xlink:href="#a11-c28" x="23427" y="19988"/><use xlink:href="#a11-c5c" x="24660" y="22281"/><use xlink:href="#a11-c5c" x="25893" y="24575"/><use xlink:href="#a11-c3d" x="27126" y="24575"/><use xlink:href="#a11-c5f" x="0" y="26869"/><use xlink:href="#a11-c2e" x="13563" y="26869"/><use xlink:href="#a11-c2d" x="14796" y="26869"/><use xlink:href="#a11-c2d" x="16029" y="26869"/><use xlink:href="#a11-c2e" x="17262" y="26869"/><use xlink:href="#a11-c7c" x="27126" y="26869"/><use xlink:href="#a11-c27" x="1233" y="29163"/><use xlink:href="#a11-c2d" x="2466" y="29163"/><use xlink:href="#a11-c2e" x="3699" y="29163"/><use xlink:href="#a11-c2f" x="12330" y="29163"/><use xlink:href="#a11-c5c" x="18495" y="29163"/><use xlink:href="#a11-c7c" x="27126" y="29163"/><use xlink:href="#a11-c5c" x="4932" y="31456"/><use xlink:href="#a11-c2e" x="24660" y="31456"/><use xlink:href="#a11-c27" x="25893" y="31456"/><use xlink:href="#a11-c5c" x="6165" y="33750"/><use xlink:href="#a11-c2e" x="13563" y="33750"/><use xlink:href="#a11-c2d" x="14796" y="33750"/><use xlink:href="#a11-c2d" x="16029" y="33750"/><use xlink:href="#a11-c2d" x="17262" y="33750"/><use xlink:href="#a11-c2e" x="18495" y="33750"/><use xlink:href="#a11-c7c" x="23427" y="33750"/><use xlink:href="#a11-c7c" x="7398" y="36044"/><use xlink:href="#a11-c7c" x="13563" y="36044"/><use xlink:href="#a11-c5f" x="14796" y="36044"/><use xlink:href="#a11-c7c" x="18495" y="36044"/><use xlink:href="#a11-c7c" x="23427" y="36044"/><use xlink:href="#a11-c5f" x="24660" y="36044"/><use xlink:href="#a11-c5f" x="25893" y="36044"/><use xlink:href="#a11-c7c" x="7398" y="38338"/><use xlink:href="#a11-c5f" x="8631" y="38338"/><use xlink:href="#a11-c5f" x="9864" y="38338"/><use xlink:href="#a11-c5f" x="11097" y="38338"/><use xlink:href="#a11-c5f" x="12330" y="38338"/><use xlink:href="#a11-c5f" x="13563" y="38338"/><use xlink:href="#a11-c5f" x="14796" y="38338"/><use xlink:href="#a11-c29" x="16029" y="38338"/><use xlink:href="#a11-c7c" x="18495" y="38338"/><use xlink:href="#a11-c5f" x="19728" y="38338"/><use xlink:href="#a11-c5f" x="20961" y="38338"/><use xlink:href="#a11-c5f" x="22194" y="38338"/><use xlink:href="#a11-c5f" x="23427" y="38338"/><use xlink:href="#a11-c5f" x="24660" y="38338"/><use xlink:href="#a11-c5f" x="25893" y="38338"/><use xlink:href="#a11-c29" x="27126" y="38338"/></g>
  </g>
</svg>
